<?xml version="1.0"?>
<svg xmlns="http://www.w3.org/2000/svg" id="bold" enable-background="new 0 0 24 24" height="512px" viewBox="0 0 24 24" width="512px"><g><path d="m8.866 12.427-1.293-1.293c-.487-.487-.487-1.28 0-1.768l6.366-6.366-1.72-1.72c-.214-.214-.279-.537-.163-.817s.391-.463.694-.463h6.5c.414 0 .75.336.75.75v6.5c0 .303-.183.577-.463.693s-.602.053-.817-.163l-1.72-1.719-6.366 6.366c-.486.485-1.278.489-1.768 0z" data-original="#000000" class="active-path" data-old_color="#000000" fill="#1273EB"/><path d="m11.25 24h-6.5c-.414 0-.75-.336-.75-.75v-6.5c0-.303.183-.577.463-.693s.603-.052.817.163l1.72 1.719 6.366-6.366c.487-.487 1.28-.487 1.768 0l1.293 1.293c.487.487.487 1.28 0 1.768l-6.366 6.366 1.72 1.72c.214.214.279.537.163.817s-.391.463-.694.463z" data-original="#000000" class="active-path" data-old_color="#000000" fill="#1273EB"/></g> </svg>
